<?xml version="1.0" encoding="utf-8"?>
<!-- Generator: Adobe Illustrator 25.1.0, SVG Export Plug-In . SVG Version: 6.00 Build 0)  -->
<svg version="1.1" id="Layer_1" xmlns="http://www.w3.org/2000/svg" xmlns:xlink="http://www.w3.org/1999/xlink" x="0px" y="0px"
	 viewBox="0 0 64 64" style="enable-background:new 0 0 64 64;" xml:space="preserve">
<g>
	<path d="M8.73,11.64c-0.82,0-1.54,0.01-2.27,0c-1.38-0.02-2.4-1.04-2.39-2.39C4.1,7.96,5.13,6.98,6.5,6.98c16.98,0,33.97,0,50.95,0
		c1.41,0,2.46,0.98,2.47,2.3c0.01,1.36-1.03,2.35-2.48,2.36c-0.7,0-1.39,0-2.17,0c0,0.35,0,0.63,0,0.91c0,13.91,0,27.82,0,41.73
		c0,5.5-4.2,9.71-9.69,9.71c-9.06,0-18.12,0-27.18,0c-5.48,0-9.67-4.25-9.67-9.74c0.01-13.96,0-27.92,0.01-41.87
		C8.73,12.17,8.73,11.95,8.73,11.64z M50.61,11.7c-12.45,0-24.82,0-37.22,0c0,0.32,0,0.59,0,0.85c0,13.84,0,27.67,0,41.51
		c0,3.26,2.03,5.28,5.32,5.28c8.94,0,17.88,0,26.82,0c2.96,0,5.08-2.12,5.08-5.08c0-12.94,0-25.88,0-38.82
		C50.61,14.21,50.61,12.98,50.61,11.7z"/>
	<path d="M32,0c3.03,0,6.06,0,9.09,0c1.51,0,2.57,0.98,2.55,2.36c-0.02,1.34-1.07,2.29-2.55,2.29c-6.06,0-12.11,0-18.17,0
		c-1.52,0-2.56-0.98-2.55-2.36C20.38,0.95,21.43,0,22.91,0C25.94,0,28.97,0,32,0z"/>
	<path d="M21.53,36.07c0-3.88-0.01-7.75,0-11.63c0-1.19,0.87-2.16,2-2.32c1.17-0.16,2.28,0.59,2.59,1.75
		c0.07,0.25,0.07,0.53,0.07,0.79c0,7.61,0,15.22,0,22.83c0,1.51-0.99,2.57-2.37,2.55c-1.34-0.02-2.29-1.07-2.29-2.56
		C21.53,43.68,21.53,39.87,21.53,36.07z"/>
	<path d="M37.81,36.07c0-3.81,0-7.61,0-11.42c0-1.52,0.97-2.56,2.36-2.55c1.35,0.01,2.29,1.06,2.29,2.55c0,7.61,0,15.22,0,22.83
		c0,1.51-0.98,2.57-2.36,2.55c-1.34-0.01-2.29-1.07-2.3-2.55C37.81,43.68,37.81,39.88,37.81,36.07z"/>
</g>
</svg>
